<svg width="128" height="41" viewBox="0 0 128 41" fill="none" xmlns="http://www.w3.org/2000/svg">
<path d="M28.1212 7.51841C28.8528 6.47993 30.5764 4.05004 32.1726 1.8067C32.7467 0.999688 33.2663 0.339524 33.3273 0.339844C33.3881 0.340164 33.5729 0.448376 33.7379 0.580494L34.038 0.820507L32.1456 3.48806C31.1046 4.95513 30.0343 6.46766 29.767 6.84918C29.4997 7.2307 29.2432 7.59088 29.1971 7.64957C29.151 7.70827 28.6061 8.47665 27.9864 9.35708C26.9341 10.8518 25.8241 12.4202 22.6593 16.8842C21.9549 17.8778 21.0819 19.1117 20.7191 19.6266C20.3564 20.1414 19.5315 21.307 18.886 22.2167C18.2405 23.1265 17.3127 24.4384 16.8242 25.1322C16.3356 25.8259 15.8159 26.5528 15.6692 26.7475C15.3629 27.1541 14.9023 27.8022 13.8459 29.3136C12.8377 30.756 12.9031 30.706 12.4811 30.3538L12.1289 30.0596L12.336 29.7934C12.4499 29.6468 12.7302 29.2588 12.9589 28.9311C13.1876 28.6032 14.2151 27.1494 15.2423 25.7002C16.2695 24.2509 17.1705 22.9783 17.2446 22.8721C17.3596 22.7072 17.3293 22.6104 17.0368 22.2078C16.141 20.9745 11.688 14.7669 10.9191 13.6792C9.3561 11.4684 7.2183 8.50557 7.10742 8.39661C7.03389 8.32425 7.01169 11.935 7.03859 19.6021L7.07829 30.9143H6.65141H6.22453L6.15975 24.5112C6.12411 20.9895 6.08804 15.5348 6.07971 12.3898L6.06445 6.6716L6.46465 6.54834C6.82963 6.43607 6.88107 6.44621 7.04968 6.66391C7.27742 6.95814 11.9692 13.4899 13.1619 15.1733C13.8051 16.0811 17.8598 21.7423 17.9509 21.8597C17.9579 21.8687 18.2998 21.3971 18.7107 20.8118C19.1215 20.2263 19.517 19.6667 19.5895 19.5681C19.7262 19.382 20.9842 17.6061 23.4597 14.1046C24.2521 12.9837 25.4767 11.2539 26.181 10.2606C26.8854 9.26722 27.7584 8.03323 28.1212 7.51841Z" fill="#06B3A8"/>
<path d="M24.6592 16.027C24.8873 15.7042 25.6803 14.5637 26.4216 13.4924C27.1627 12.4213 27.8248 11.5448 27.893 11.5448C27.9611 11.5448 28.168 11.5975 28.3529 11.662L28.6889 11.7792V21.2667V30.7543H28.2087H27.7285L27.7236 22.03C27.7195 14.2663 27.7013 13.3292 27.5595 13.5191C27.4718 13.6365 26.8196 14.573 26.1101 15.6001C25.4006 16.6273 23.9978 18.6419 22.9927 20.0768C21.3543 22.416 20.4924 23.6505 19.1376 25.5982C18.9028 25.9357 17.8463 27.4488 16.7897 28.9604C13.806 33.2295 12.3315 35.3412 12.0407 35.7616C11.2207 36.9472 9.12825 39.9165 8.95633 40.1386C8.76007 40.3921 8.74823 40.3939 8.47129 40.2124C8.31516 40.1101 8.16287 39.9624 8.13288 39.8843C8.1029 39.8062 8.39787 39.2928 8.78846 38.7434C9.17905 38.1939 11.1234 35.4152 13.1093 32.5685C15.0952 29.7218 17.0239 26.9608 17.3953 26.4331C17.7665 25.9054 18.3376 25.089 18.6643 24.6189C19.8822 22.8661 24.2594 16.5927 24.6592 16.027Z" fill="#06B3A8"/>
<path d="M43.097 27.6367C43.4778 27.6367 43.722 27.3926 43.722 26.9824V15.9375H43.7806L48.4485 26.8945C48.6146 27.2852 48.8685 27.4609 49.2591 27.4609C49.6497 27.4609 49.8939 27.2852 50.0696 26.875L54.7376 15.9375H54.7962V26.9824C54.7962 27.3926 55.0306 27.6367 55.4212 27.6367C55.8118 27.6367 56.0462 27.3926 56.0462 26.9824V14.0918C56.0462 13.5938 55.7142 13.2715 55.2161 13.2715C54.7669 13.2715 54.4837 13.4863 54.2786 13.9648L49.2884 25.7422H49.2298L44.22 13.9648C44.015 13.4863 43.7513 13.2715 43.3021 13.2715C42.804 13.2715 42.472 13.5938 42.472 14.0918V26.9824C42.472 27.3926 42.7064 27.6367 43.097 27.6367ZM66.5989 27.666C69.3724 27.666 71.2278 25.6348 71.2278 22.4219C71.2278 19.209 69.3724 17.1777 66.5989 17.1777C63.8255 17.1777 61.97 19.209 61.97 22.4219C61.97 25.6348 63.8255 27.666 66.5989 27.666ZM66.5989 26.5234C64.597 26.5234 63.2884 24.9902 63.2884 22.4219C63.2884 19.8535 64.597 18.3203 66.5989 18.3203C68.6107 18.3203 69.9193 19.8633 69.9193 22.4219C69.9193 24.9805 68.6107 26.5234 66.5989 26.5234ZM77.5911 27.666C77.972 27.666 78.2357 27.3828 78.2357 26.9727V21.4844C78.2357 19.5996 79.4075 18.3301 81.1849 18.3301C82.8646 18.3301 83.8509 19.3457 83.8509 21.123V26.9727C83.8509 27.3828 84.1146 27.666 84.4954 27.666C84.8763 27.666 85.14 27.3828 85.14 26.9727V20.918C85.14 18.6133 83.763 17.1777 81.556 17.1777C79.9056 17.1777 78.7239 17.9785 78.1966 19.2188H78.1673V17.832C78.1673 17.4414 77.9134 17.1777 77.5521 17.1777C77.2005 17.1777 76.9466 17.4414 76.9466 17.832V26.9727C76.9466 27.3828 77.2103 27.666 77.5911 27.666ZM95.1556 27.666C96.8743 27.666 98.095 26.6895 98.6028 25.3027H98.6321V27.0312C98.6321 27.4121 98.9349 27.666 99.2962 27.666C99.6673 27.666 99.931 27.4023 99.931 27.0312V13.9355C99.931 13.5254 99.6575 13.2422 99.2767 13.2422C98.8958 13.2422 98.6321 13.5254 98.6321 13.9355V19.4336H98.6028C98.0657 18.1152 96.7669 17.1777 95.1263 17.1777C92.5775 17.1777 90.8099 19.2578 90.8099 22.4219C90.8099 25.5762 92.5872 27.666 95.1556 27.666ZM95.3802 26.5234C93.4271 26.5234 92.138 24.9023 92.138 22.4219C92.138 19.9414 93.4271 18.3203 95.3802 18.3203C97.3138 18.3203 98.6419 19.9707 98.6419 22.4219C98.6419 24.8828 97.3138 26.5234 95.3802 26.5234ZM109.781 27.666C111.392 27.666 112.613 26.8652 113.15 25.6152H113.179V27.0117C113.179 27.3828 113.423 27.666 113.794 27.666C114.165 27.666 114.4 27.3828 114.4 27.0117V17.8711C114.4 17.4609 114.136 17.1777 113.755 17.1777C113.374 17.1777 113.111 17.4609 113.111 17.8711V23.3691C113.111 25.2734 111.919 26.5137 110.152 26.5137C108.452 26.5137 107.495 25.5176 107.495 23.7207V17.8711C107.495 17.4609 107.222 17.1777 106.851 17.1777C106.47 17.1777 106.197 17.4609 106.197 17.8711V23.9453C106.197 26.2305 107.574 27.666 109.781 27.666Z" fill="white"/>
</svg>
